<svg width="88" height="87" viewBox="0 0 88 87" fill="none" xmlns="http://www.w3.org/2000/svg">
  <path d="M87.05 48.7003L81.46 38.1403C73.41 42.4003 66.87 44.9903 61.91 45.8803C67.69 41.9303 72.94 35.1303 77.72 25.4203L67 20.1303C63.74 26.7403 60.69 30.9803 57.93 33.6803C59.5 26.4303 57.5 16.2103 48.92 0.0102539L38.36 5.60027C42.62 13.6503 45.21 20.1903 46.1 25.1403C42.15 19.3603 35.35 14.1203 25.65 9.33026L20.36 20.0503C26.97 23.3103 31.21 26.3603 33.91 29.1203C26.66 27.5503 16.44 29.5503 0.23999 38.1203L5.82999 48.6803C13.87 44.4202 20.4 41.8403 25.36 40.9403C19.57 44.9403 14.33 51.7303 9.56999 61.3903L20.29 66.6803C23.53 60.1003 26.59 55.8503 29.36 53.1303C27.79 60.3803 29.79 70.6003 38.37 86.8002L48.93 81.2103C44.67 73.1702 42.09 66.6403 41.19 61.6803C45.19 67.4703 51.98 72.7103 61.64 77.4703L66.93 66.7503C60.35 63.5103 56.1 60.4603 53.38 57.6903C54.85 58.0103 56.43 58.1803 58.17 58.1803C65.01 58.1803 74.14 55.5203 87.06 48.6803L87.05 48.7003Z" fill="#8A63D2"/>
</svg>